<?xml version="1.0" encoding="UTF-8"?>
<svg id="_レイヤー_1" data-name="レイヤー_1" xmlns="http://www.w3.org/2000/svg" version="1.1" viewBox="0 0 595.28 841.89">
  <!-- Generator: Adobe Illustrator 30.2.1, SVG Export Plug-In . SVG Version: 2.1.1 Build 1)  -->
  <defs>
    <style>
      .st0, .st1 {
        fill: #fff;
      }

      .st0, .st1, .st2 {
        stroke: #231815;
      }

      .st0, .st1, .st2, .st3 {
        stroke-miterlimit: 10;
      }

      .st0, .st2 {
        stroke-width: 7px;
      }

      .st1 {
        stroke-width: 5px;
      }

      .st4 {
        font-family: PJun501ProN-Bold-83pv-RKSJ-H, 'A P-OTF Jun ProN';
        font-size: 20px;
        font-weight: 700;
      }

      .st4, .st5 {
        fill: #231815;
      }

      .st6 {
        fill: #a06724;
      }

      .st7 {
        fill: #954923;
      }

      .st2 {
        fill: none;
        stroke-linecap: round;
      }

      .st3 {
        fill: #f2dad6;
        stroke: #0a090a;
        stroke-width: 6px;
      }
    </style>
  </defs>
  <path class="st1" d="M166.35,233.18"/>
  <g>
    <path class="st3" d="M374.32,365.14c0,63.9-52.91,115.69-118.18,115.69s-118.18-51.8-118.18-115.69c0-59.9,46.5-109.17,106.09-115.1,3.97-.39,8-.6,12.08-.6,65.27,0,118.18,51.8,118.18,115.69Z"/>
    <path class="st1" d="M302.34,357.67"/>
    <path class="st0" d="M198.31,353.78c-.78,8.37,1.3,16.92,5.4,24.8,19.2,36.94,82.77,59.09,104.67-21.76.27-1,.53-2.01.79-3.04h-110.86Z"/>
    <path class="st0" d="M237.56,335.18"/>
    <path class="st2" d="M229.8,302.6s-5.87,1.81-6.64,11.99c-.28,3.66.95,7.41,3.69,9.86,1.98,1.76,3.44,6.09-.5,16.71"/>
    <path class="st2" d="M278.66,301.08s-5.87,1.81-6.64,11.99c-.28,3.66.95,7.41,3.69,9.86,1.98,1.76,3.44,6.09-.5,16.71"/>
    <path class="st0" d="M267.16,336.56"/>
    <path class="st0" d="M311.92,355.84c21.68-16.53,44.45,45.41-11.71,33.74l11.71-33.74Z"/>
    <path class="st5" d="M225.47,398.52"/>
    <path class="st6" d="M289.82,350.77"/>
    <path class="st6" d="M211.19,388.94"/>
    <text class="st4" transform="translate(183.87 441.84) scale(.75 1)"><tspan x="0" y="0">THE COFFE HOUSE</tspan></text>
    <path class="st7" d="M207.18,377.68l89.98-.57c-19.81,45.84-67.35,39.05-89.98.57Z"/>
  </g>
</svg>