<?xml version="1.0" encoding="UTF-8"?>
<svg id="_レイヤー_1" data-name="レイヤー_1" xmlns="http://www.w3.org/2000/svg" version="1.1" viewBox="0 0 595.28 841.89">
  <!-- Generator: Adobe Illustrator 30.2.1, SVG Export Plug-In . SVG Version: 2.1.1 Build 1)  -->
  <defs>
    <style>
      .st0 {
        fill: #60ae5c;
      }

      .st1 {
        fill: #ddd;
      }

      .st2 {
        fill: #c7686e;
      }

      .st3 {
        fill: #377637;
      }

      .st4 {
        fill: #fff;
      }

      .st5 {
        fill: #bf656b;
      }

      .st6 {
        fill: #2d0b06;
      }

      .st7 {
        fill: #2e0c05;
      }

      .st8 {
        fill: #f09299;
      }

      .st9 {
        fill: #fadbdc;
      }
    </style>
  </defs>
  <g id="_ステッカー" data-name="ステッカー">
    <g>
      <path class="st4" d="M409.59,482.07c-5.25-4.34-10.09-9.6-15.2-15.16-2.45-2.67-4.92-5.35-7.48-7.97,4.27-9.26,6.5-19.47,6.13-29.72-.5-14.22-5.74-29.03-15.15-42.84-8.4-12.32-19.21-22.64-28.67-31.11-7.23-6.47-15.26-11.32-23.02-16.01-2.53-1.53-4.92-2.97-7.28-4.47-6.98-4.42-16.73-7.58-17.82-7.92l-3.55-1.13-3.52,1.2c-1.62.55-9.96,3.44-14.65,6.34-8.96,5.53-17.93,11.31-26.67,17.21-20.41,13.76-40.46,29.7-48.93,52.99-6.11,16.8-4.8,35.66,2.54,51.75-12.64,7.34-22.51,17.3-28.33,28.78l-5.31,10.48,10.67,4.94c17.19,7.95,37.37,16.51,59.37,17.38,1.1.04,2.2.07,3.3.07,18.36,0,35.4-6.08,47.54-16.62,5.25,4.87,11.69,8.79,19,11.49,9.63,3.56,20.75,5.06,34,4.59,20.98-.75,42.02-6.06,60.84-15.35l15.71-7.75-13.5-11.16Z"/>
      <path class="st1" d="M410.03,481.63c-8.32-6.92-15.17-15.39-22.68-23.13l.1.76c5.43-11.88,7.44-24.96,5.47-37.9-1.93-12.7-7.29-24.73-14.49-35.29s-15.98-19.56-25.27-28.08c-4.72-4.33-9.61-8.36-14.93-11.93-5.61-3.77-11.47-7.12-17.21-10.68-7.13-4.42-14.82-7.73-22.87-10.09-1.1-.32-2.25.37-3.3.73-1.16.4-2.33.79-3.48,1.22-4.86,1.78-9.55,3.81-13.96,6.54-11.47,7.12-22.9,14.42-33.84,22.33-9.44,6.82-18.52,14.3-26.09,23.19s-13.41,19.04-16.22,30.31c-3.06,12.23-2.5,25.25,1.22,37.27.91,2.96,2.03,5.85,3.31,8.68l.22-.86c-7.99,4.67-15.31,10.56-21.17,17.75-3.95,4.84-6.84,10.19-9.65,15.73-1.02,2-2.03,4.01-3.05,6.01-.14.28-.1.71.22.86,12.04,5.57,24.03,11.36,36.6,15.65,18.9,6.45,39.39,9.36,58.89,3.84,9.57-2.71,18.59-7.32,26.14-13.83h-.88c15.8,14.54,37.83,17.45,58.46,16,20.2-1.42,39.69-7.05,57.82-15.99,4.68-2.31,9.35-4.62,14.03-6.92.34-.17.43-.73.13-.98-4.5-3.72-9-7.44-13.5-11.16-.62-.51-1.5.37-.88.88,4.5,3.72,9,7.44,13.5,11.16l.13-.98c-10.86,5.36-21.6,11.03-33.08,14.97-10.65,3.65-21.71,6.12-32.9,7.31s-21.79,1.3-32.45-.67c-11.21-2.07-21.92-6.73-30.37-14.5-.26-.24-.62-.23-.88,0-14.04,12.11-33.02,17.23-51.33,16.33-19.86-.98-38.61-8.29-56.48-16.5-4.11-1.89-8.21-3.79-12.31-5.69l.22.86c1.76-3.46,3.5-6.93,5.27-10.39,3.76-7.37,9-13.87,15.19-19.34,4-3.54,8.37-6.62,12.97-9.31.31-.18.36-.55.22-.86-5.22-11.53-7.36-24.42-5.87-37.01,1.4-11.77,6.2-22.8,13.13-32.35s14.97-16.81,23.81-23.69c9.89-7.7,20.47-14.54,31.02-21.29,5.21-3.33,10.37-6.93,16.04-9.46,3.32-1.48,6.74-2.73,10.19-3.9.7-.24,1.44-.43,2.11-.72.28-.12.59-.07.11-.14.25.04.53.17.77.24,1.05.33,2.11.66,3.16,1.01,4.02,1.31,7.98,2.88,11.79,4.72,5.61,2.72,10.85,6.29,16.16,9.53s10.92,6.81,15.95,10.84c4.67,3.75,9.05,7.92,13.33,12.1s8.65,8.81,12.56,13.58c8.22,10.02,14.93,21.41,18.54,33.92,3.5,12.14,3.75,24.91.19,37.07-.93,3.16-2.09,6.25-3.46,9.25-.12.26-.11.54.1.76,7.51,7.74,14.36,16.22,22.68,23.13.61.51,1.5-.37.88-.88Z"/>
    </g>
    <g>
      <g>
        <path class="st0" d="M293.76,483.08c-10.77,15.98-31.36,23.14-50.61,22.38-19.26-.76-37.57-8.25-55.06-16.34,6.71-13.23,19.24-22.81,32.91-28.6,13.66-5.78,28.5-8.14,43.23-9.96,19.41-2.4,38.93-3.96,58.48-4.68,10.45-.38,21.19-.48,31.02,3.08,20.28,7.34,32.02,28.09,48.64,41.83-17.46,8.62-36.77,13.49-56.23,14.18-10.03.36-20.25-.41-29.67-3.89-9.41-3.48-18-9.9-22.66-18.79"/>
        <path class="st6" d="M292.14,482.14c-7.46,10.97-19.74,17.48-32.5,20.13-14.94,3.1-30.3.53-44.62-4.17-8.9-2.92-17.49-6.66-25.98-10.59l.67,2.57c6.55-12.78,18.38-21.87,31.34-27.54,15.72-6.87,33.14-8.98,50.03-10.9,17.99-2.04,36.07-3.41,54.16-3.95,8.42-.25,16.99-.18,25.14,2.18,6.6,1.91,12.6,5.44,17.9,9.77,10.61,8.66,18.82,19.8,28.85,29.08,1.27,1.18,2.57,2.32,3.9,3.42l.38-2.94c-14.1,6.93-29.43,11.44-45.05,13.17-14.99,1.66-31.52,1.65-45.14-5.67-6.6-3.54-12.28-8.68-15.81-15.34-1.13-2.13-4.37-.24-3.24,1.89,7.05,13.28,21.47,20.52,35.86,22.7,8.24,1.25,16.63,1.21,24.92.5,8.2-.7,16.34-2.11,24.3-4.23,8.98-2.39,17.71-5.7,26.05-9.79,1.02-.5,1.27-2.2.38-2.94-10.85-9-19.24-20.49-29.71-29.89-5.16-4.63-10.85-8.72-17.26-11.44-7.9-3.34-16.48-4.27-24.99-4.32-9.08-.05-18.2.51-27.26,1.09s-18.53,1.37-27.76,2.34c-17.59,1.84-35.67,3.7-52.35,9.92-13.9,5.18-26.98,13.73-35.2,26.33-.98,1.51-1.88,3.07-2.7,4.67-.43.83-.29,2.12.67,2.57,15.68,7.25,31.88,13.98,49.17,16.05,14.27,1.71,29.19-.33,41.89-7.32,6.84-3.76,12.78-8.99,17.18-15.45,1.36-2-1.89-3.88-3.24-1.89h0Z"/>
      </g>
      <path class="st3" d="M193.32,488.97c22.69-9.74,47.2-15.2,71.87-16.07,6.87-.24,13.75-.13,20.62.33,1.61.11,1.6-2.39,0-2.5-24.97-1.67-50.23,1.33-74.11,8.79-6.67,2.08-13.22,4.53-19.64,7.28-1.47.63-.2,2.79,1.26,2.16h0Z"/>
      <path class="st3" d="M275.69,470.57c-10.43,4.85-16.15,16.24-14.14,27.51.28,1.58,2.69.91,2.41-.66-1.82-10.23,3.64-20.34,13-24.69,1.46-.68.19-2.83-1.26-2.16h0Z"/>
      <path class="st3" d="M247.04,471.34c-9.83,3.97-16.58,14.01-16.32,24.65.04,1.61,2.54,1.61,2.5,0-.24-9.44,5.68-18.69,14.48-22.24,1.47-.59.83-3.01-.66-2.41h0Z"/>
      <path class="st3" d="M221.33,477.15c-5.44,2.2-8.09,9.01-5.42,14.28.73,1.44,2.88.17,2.16-1.26-1.86-3.68,0-9.02,3.93-10.6.63-.25,1.07-.83.87-1.54-.16-.59-.91-1.13-1.54-.87h0Z"/>
      <path class="st3" d="M227.28,474.56c-3.84-1.85-7-4.76-9.1-8.45-.8-1.4-2.96-.14-2.16,1.26,2.3,4.02,5.82,7.34,10,9.35.61.29,1.35.17,1.71-.45.32-.55.16-1.42-.45-1.71h0Z"/>
      <path class="st3" d="M312.83,474.34c19.11,5.88,38.61,10.42,58.36,13.56,5.58.89,11.18,1.66,16.79,2.33,1.59.19,1.58-2.31,0-2.5-19.66-2.35-39.14-6.09-58.28-11.16-5.43-1.44-10.83-2.99-16.2-4.65-1.54-.47-2.2,1.94-.66,2.41h0Z"/>
      <path class="st3" d="M356.09,483.48c6.85-.38,13.61-1.73,20.06-4.07,1.5-.54.85-2.96-.66-2.41-6.24,2.26-12.77,3.62-19.4,3.98-1.6.09-1.61,2.59,0,2.5h0Z"/>
      <path class="st3" d="M354.95,484.4c4.76,2.22,7.67,7.76,6.54,12.94-.34,1.57,2.07,2.24,2.41.66,1.35-6.21-1.89-13.06-7.69-15.77-.61-.29-1.35-.17-1.71.45-.32.54-.17,1.42.45,1.71h0Z"/>
      <path class="st3" d="M336.8,480.76c3.95,4.73,5.65,11.22,4.51,17.28-.3,1.57,2.11,2.25,2.41.66,1.31-7-.58-14.25-5.15-19.71-1.03-1.24-2.79.54-1.77,1.77h0Z"/>
      <path class="st3" d="M321.05,476.75c4.27,4.56,5.34,11.73,2.55,17.33-.72,1.44,1.44,2.7,2.16,1.26,3.31-6.63,2.12-14.94-2.94-20.36-1.1-1.18-2.87.59-1.77,1.77h0Z"/>
      <g>
        <path class="st8" d="M299.83,473.15c-19.56,13.58-47.91,12.88-66.77-1.65-18.87-14.54-26.78-41.76-18.63-64.14,7.55-20.76,26.3-35.11,44.61-47.46,8.65-5.83,17.41-11.48,26.28-16.96,3.84-2.37,12.34-5.25,12.34-5.25,0,0,9.25,2.94,15.19,6.7,9.77,6.18,20.19,11.63,28.81,19.34,9.85,8.82,19.41,18.13,26.86,29.05s12.72,23.64,13.19,36.85c.72,20.36-10.96,40.67-28.92,50.29s-41.34,8.08-57.89-3.8"/>
        <path class="st7" d="M298.88,471.53c-13.23,9.11-30.31,11.66-45.78,7.63-7.6-1.98-14.83-5.56-20.81-10.68s-10.44-11.25-13.71-18.18c-6.59-13.97-7.41-30.62-1.39-44.92,6.63-15.75,19.94-27.56,33.49-37.39,7.8-5.66,15.89-10.94,24-16.15,4.16-2.67,8.28-5.55,12.63-7.89,2.85-1.53,5.91-2.69,8.95-3.79.63-.23,1.26-.46,1.9-.67h-1c5.4,1.72,10.69,3.97,15.5,6.98,7.74,4.85,15.78,9.25,23.08,14.78,3.6,2.73,6.91,5.83,10.2,8.91s6.55,6.28,9.65,9.59c6.16,6.6,11.74,13.75,16.05,21.71,4.13,7.64,7.13,16.05,7.98,24.73.76,7.73-.24,15.46-2.85,22.77-5.1,14.3-16.31,26.55-30.62,31.94-14.66,5.52-31.71,4.36-45.41-3.29-1.69-.94-3.31-1.98-4.89-3.1-1.97-1.4-3.84,1.85-1.89,3.24,13.91,9.91,32.39,12.81,48.79,8.22,16.19-4.54,29.42-16.71,36.07-32.06,3.28-7.57,5.04-15.81,4.78-24.08-.3-9.46-3.01-18.69-7.14-27.16s-9.99-16.45-16.41-23.58c-3.28-3.65-6.75-7.12-10.32-10.49s-7.03-6.63-10.83-9.59c-7.76-6.04-16.4-10.76-24.71-15.99-3.45-2.16-7.17-3.83-10.95-5.3-1.29-.5-2.58-.98-3.89-1.43-.72-.25-1.42-.57-2.19-.38-2.36.57-4.73,1.71-6.96,2.64-3.84,1.6-7.27,3.68-10.79,5.89-8.74,5.48-17.41,11.1-25.88,16.99-14.07,9.77-28.12,20.96-36.63,36.15-7.99,14.27-9.59,31.11-4.66,46.69s15.63,28.47,30.37,35.14,32.53,7.24,47.66,1.04c3.71-1.52,7.23-3.38,10.53-5.65,1.97-1.36.1-4.61-1.89-3.24h0Z"/>
      </g>
      <path class="st9" d="M226.16,406.85c-1.88,1.47-3.19,3.56-4.12,5.76s-1.54,4.51-2.25,6.79c-.62,1.97-1.33,3.94-1.57,5.99s.04,4.25,1.25,5.93c.46.63,1.05,1.19,1.78,1.49s1.58.31,2.27-.06c.84-.46,1.28-1.41,1.52-2.34.73-2.93-.13-6-.17-9.03-.06-3.98,1.29-7.84,2.86-11.49.25-.59.51-1.19.5-1.83s-.38-1.32-1-1.47c-.82-.21-1.54.55-2.06,1.22"/>
      <path class="st9" d="M228.74,401.19c-.58-.24-1.28.11-1.57.67s-.24,1.24-.02,1.82c.16.43.42.83.78,1.1s.86.39,1.3.25c.46-.15.79-.57,1.01-1,.28-.54.46-1.15.39-1.75s-.45-1.18-1.02-1.41-1.3,0-1.55.56"/>
      <path class="st9" d="M366.97,442.81c.21,2.38-.43,4.76-1.4,6.94s-2.25,4.2-3.43,6.28c-1.02,1.8-1.97,3.66-3.31,5.23s-3.14,2.87-5.19,3.13c-.78.1-1.59.04-2.3-.29s-1.31-.94-1.5-1.7c-.23-.93.16-1.9.68-2.71,1.64-2.54,4.48-4,6.72-6.03,2.95-2.67,4.85-6.29,6.45-9.93.26-.58.52-1.19.99-1.61s1.22-.62,1.76-.28c.71.46.65,1.5.51,2.34"/>
      <path class="st9" d="M369.35,437.07c.57.26.79,1.02.59,1.61s-.74,1.02-1.32,1.25c-.42.17-.89.26-1.34.18s-.87-.36-1.07-.78c-.2-.44-.12-.96.04-1.42.2-.57.52-1.12,1.02-1.47s1.17-.48,1.72-.22.88.96.65,1.52"/>
      <path class="st2" d="M299.39,409.85c11.2,12.32,14.7,30.08,9.06,45.73-1.61,4.46-3.94,8.63-6.83,12.38-.98,1.27,1.19,2.52,2.16,1.26,10.78-14,12.82-33.15,5.39-49.15-2.04-4.38-4.76-8.42-8.01-12-1.08-1.19-2.85.58-1.77,1.77h0Z"/>
    </g>
    <g>
      <path class="st5" d="M316.45,410.51c1.26,2.51.07,4.34-1.4,4.95-1.46.61-3.47.28-4.59-1.99-1.1-2.23-.23-4.06,1.18-4.87,1.42-.82,3.57-.56,4.81,1.91ZM311.26,413.09c.9,1.82,2.68,1.09,3.11.89.31-.14,2.3-1.05,1.28-3.1-1.02-2.03-2.89-1.04-3.23-.85-.39.22-2.07,1.23-1.17,3.05Z"/>
      <path class="st5" d="M315.84,422.6c-.4.51-.37,1.02-.2,1.67-.35.09-.52.14-.87.23-.22-.82-.33-1.23-.58-2.04,1.02-1.25,1.51-1.9,2.45-3.24-.23-.16-.34-.24-.57-.39-.58.2-.86.31-1.44.51-.63.22-.66.45-.41,1.18-.23.08-.35.12-.58.19-.43-1.27-.66-1.9-1.16-3.16.23-.09.34-.14.57-.23.28.71.46.87,1.08.63,2.47-.95,3.71-1.42,6.19-2.36.23-.09.49-.22.31-.67-.07-.17-.14-.29-.22-.42.22-.11.33-.17.54-.28.55.95.82,1.43,1.33,2.4-2.05.73-3.07,1.09-5.12,1.81.79.54,1.18.82,1.96,1.39.11.08.15.11.2.09.1-.03.04-.23.01-.31-.02-.05-.02-.07-.04-.12.23-.08.35-.11.58-.19.4,1.21.59,1.82.93,3.05-.24.06-.36.1-.59.16-.1-.36-.24-.84-.82-1.3-.63-.49-.95-.73-1.59-1.19-.76,1.06-1.16,1.58-1.96,2.58Z"/>
      <path class="st5" d="M320.75,428.76c.56-.1.71-.5.54-1.36-.19-.99-.49-1.2-.83-1.31-.27-.08-.59-.16-.71-.66-.11-.45.12-.77.4-.84.68-.16,1.65.87,2.01,2.68.53,2.69-.86,2.96-1.41,3.04-1.36.2-2.04.3-3.4.49-.16.02-.39.07-.35.29.02.14.22.29.57.41-.12.27-.18.4-.3.67-.32-.12-1.25-.48-1.41-1.47-.13-.83.44-1.11.65-1.18-.33-.32-1.02-1.03-1.28-2.26-.39-1.84.75-2.3,1.12-2.4,1.1-.27,1.91.59,2.44,1.7.26.55.51,1.11.99,2.35.38-.07.58-.1.96-.16ZM318.88,429.08c-.81-2.35-1.2-2.92-1.93-2.76-.35.08-.82.44-.68,1.13.13.62.68,1.44,1.32,1.85.52-.09.77-.13,1.29-.22Z"/>
      <path class="st5" d="M322.09,438c.06.04.16.07.24.07.24,0,.23-.29.22-.58,0-.1,0-.15-.01-.26.25,0,.37-.01.62-.02.05,1.16.06,1.74.06,2.89-.25,0-.37,0-.62,0,.01-.44-.04-.69-.5-.93-2.57-1.33-3.86-1.94-6.47-3-.75-.3-2.08-.81-2.19-2.02-.05-.57.26-.7.44-.72.49-.05.58.42.65.84.06.37.12.48,1.46,1.02.51.21.77.31,1.28.53,1.83-.98,2.73-1.5,4.51-2.61.44-.27.36-.84.33-1.16.25-.03.37-.04.62-.07.18,1.43.24,2.14.34,3.58-.25.02-.37.02-.62.04-.03-.5-.06-.82-.29-.8-.07,0-.21.07-.28.11-1.17.68-1.76,1-2.95,1.63,1.27.56,1.9.85,3.15,1.47Z"/>
      <path class="st5" d="M321.47,445.76c.58.06.83-.29.89-1.17.07-1-.16-1.29-.47-1.48-.24-.15-.54-.31-.52-.82.02-.46.32-.71.61-.7.71.02,1.39,1.27,1.26,3.11-.19,2.73-1.62,2.63-2.19,2.56-1.39-.17-2.08-.25-3.47-.42-.17-.02-.4-.04-.43.19-.02.14.14.34.46.54-.19.23-.28.34-.47.57-.28-.2-1.11-.79-.99-1.79.09-.83.72-.95.95-.97-.24-.4-.73-1.26-.66-2.51.1-1.87,1.35-2.01,1.73-2.01,1.15.03,1.72,1.06,1.94,2.27.11.6.2,1.2.35,2.52.39.04.59.06.99.1ZM319.55,445.57c-.17-2.48-.41-3.13-1.16-3.16-.36-.02-.92.21-.96.91-.04.63.29,1.56.81,2.13.53.05.79.08,1.32.13Z"/>
      <path class="st5" d="M321.43,452.01c.7,1.06.4,2.46.36,2.66-.19.83-.67,1.49-1.33,1.6.57,1.06.32,2.28.16,2.82-.63,2.11-2.07,1.62-2.44,1.5-1.32-.45-1.98-.68-3.3-1.13-.65-.22-.83-.07-1.09.66-.24-.09-.36-.13-.6-.22.44-1.22.64-1.83,1.02-3.06.24.07.36.11.61.18-.2.66-.09.86.52,1.05,1.29.41,1.94.61,3.23,1.02.76.24,1.09-.34,1.22-.77.3-1.01-.28-2.09-.89-2.26-1.1-.29-1.65-.44-2.76-.74-.59-.16-.8-.09-1,.6-.24-.07-.37-.1-.61-.17.34-1.19.49-1.79.76-3,.25.06.37.08.62.14-.16.7,0,.86.59,1,1.31.32,1.97.47,3.28.79.28.07.94.14,1.14-.79.09-.41.06-1.78-1.05-2.2-1.11-.22-1.67-.32-2.78-.54-.6-.12-.81-.02-.95.67-.25-.05-.37-.08-.62-.13.26-1.26.37-1.89.57-3.16.25.04.37.06.62.09-.11.75-.04.97.64,1.09,1.5.25,2.25.38,3.74.63.32.05.56.04.63-.4.03-.17.02-.3.02-.43.25.02.38.02.63.04,0,1.04-.01,1.57-.05,2.62-.35-.07-.52-.1-.87-.17Z"/>
      <path class="st5" d="M315.75,467.08c.54.25.9,0,1.26-.82.41-.94.29-1.29.06-1.58-.18-.23-.41-.48-.22-.96.18-.44.55-.57.83-.46.67.26.91,1.69.15,3.41-1.13,2.56-2.47,1.98-2.99,1.73-1.28-.63-1.92-.95-3.19-1.59-.15-.08-.37-.17-.48.04-.07.13.02.37.25.68-.26.16-.39.24-.65.39-.2-.29-.79-1.14-.33-2.06.38-.77,1.02-.67,1.25-.61-.1-.46-.26-1.46.23-2.64.74-1.76,1.99-1.47,2.36-1.33,1.1.42,1.29,1.6,1.09,2.84-.1.62-.22,1.22-.53,2.54.37.17.55.26.92.43ZM313.96,466.25c.69-2.44.69-3.15-.03-3.44-.34-.14-.96-.11-1.24.55-.25.6-.26,1.6.04,2.32.49.23.74.34,1.23.57Z"/>
    </g>
  </g>
</svg>