<svg width="48" height="48" viewBox="0 0 48 48" fill="none" xmlns="http://www.w3.org/2000/svg">
<path d="M24.0547 0H23.9453C10.7207 0 0 10.7207 0 23.9453V24.0547C0 37.2793 10.7207 48 23.9453 48H24.0547C37.2793 48 48 37.2793 48 24.0547V23.9453C48 10.7207 37.2793 0 24.0547 0Z" fill="black"/>
<path d="M22.1426 24.9038C21.7255 24.3808 21.2479 23.9806 20.7132 23.7098C21.1857 23.4222 21.5927 23.0691 21.929 22.6487C22.4957 21.939 22.7833 21.0494 22.7833 20.0034C22.7833 19.1306 22.5529 18.3285 22.0972 17.6205C21.6431 16.9125 20.9671 16.3441 20.0876 15.9304C19.2266 15.5251 18.189 15.3199 17.0067 15.3199H10.2817V32.6866H17.3162C18.4681 32.6866 19.4973 32.4764 20.3735 32.0627C21.2664 31.6423 21.9626 31.0537 22.4402 30.3154C22.9195 29.5738 23.1634 28.7313 23.1634 27.8114C23.1634 26.7335 22.8203 25.7564 22.1426 24.9055V24.9038ZM18.5707 21.7389C18.1553 22.0752 17.5482 22.2468 16.7696 22.2468H13.8603V18.3991H16.7696C17.5449 18.3991 18.1486 18.5757 18.564 18.9255C18.9625 19.2601 19.1559 19.7226 19.1559 20.3347C19.1559 20.9468 18.9642 21.4211 18.5707 21.7389ZM13.8603 25.3276H16.9832C17.8005 25.3276 18.4294 25.526 18.9054 25.9347C19.3611 26.3265 19.5831 26.8461 19.5831 27.5255C19.5831 28.2049 19.3779 28.6842 18.9541 29.0424C18.5152 29.414 17.8846 29.6024 17.0774 29.6024H13.8603V25.3276Z" fill="white"/>
<path d="M36.9027 21.9996C36.3612 21.0208 35.5943 20.249 34.6223 19.7075C33.652 19.166 32.5303 18.8918 31.2926 18.8918C30.0549 18.8918 28.8492 19.1744 27.8553 19.731C26.8597 20.2893 26.0761 21.0915 25.5279 22.119C24.9796 23.1448 24.7021 24.3489 24.7021 25.6976C24.7021 27.0463 24.988 28.252 25.5531 29.2762C26.1181 30.302 26.9085 31.1092 27.9041 31.6742C28.8979 32.2393 30.0381 32.5252 31.2943 32.5252C32.8364 32.5252 34.1464 32.1333 35.1891 31.3615C36.2317 30.5896 36.9615 29.5839 37.3601 28.3748L37.3887 28.289H34.3381L34.3196 28.326C33.7327 29.515 32.7153 30.117 31.2926 30.117C30.3021 30.117 29.4546 29.8025 28.7735 29.1854C28.1092 28.5816 27.7275 27.7744 27.6384 26.7839H37.614L37.6224 26.7284C37.6863 26.3299 37.7183 25.8792 37.7183 25.3898C37.7183 24.1185 37.4442 22.9783 36.9027 21.9996ZM28.8206 22.1745C29.4697 21.5943 30.2618 21.3017 31.1732 21.3017C32.1805 21.3017 33.0365 21.5993 33.7176 22.1879C34.3802 22.7597 34.7316 23.5282 34.7619 24.47H27.6669C27.8015 23.5131 28.1899 22.7412 28.8222 22.1762L28.8206 22.1745Z" fill="white"/>
<path d="M34.5313 15.7185H27.887V17.2926H34.5313V15.7185Z" fill="white"/>
</svg>
