<svg width="46" height="45" viewBox="0 0 46 45" fill="none" xmlns="http://www.w3.org/2000/svg">
<g clip-path="url(#clip0_185_100)">
<path d="M8.14584 3.62707e-06H37.8542C38.9242 -0.00100824 39.9839 0.209704 40.9726 0.620081C41.9614 1.03046 42.8598 1.63244 43.6164 2.39159C44.373 3.15073 44.973 4.05212 45.382 5.04418C45.791 6.03624 46.001 7.09949 46 8.17308V36.8269C46.001 37.9005 45.791 38.9638 45.382 39.9558C44.973 40.9479 44.373 41.8493 43.6164 42.6084C42.8598 43.3676 41.9614 43.9696 40.9726 44.3799C39.9839 44.7903 38.9242 45.001 37.8542 45H8.14584C7.07583 45.001 6.01612 44.7903 5.02737 44.3799C4.03862 43.9696 3.14023 43.3676 2.38361 42.6084C1.627 41.8493 1.02702 40.9479 0.618014 39.9558C0.209005 38.9638 -0.00100488 37.9005 3.61498e-06 36.8269V8.17308C-0.00100488 7.09949 0.209005 6.03624 0.618014 5.04418C1.02702 4.05212 1.627 3.15073 2.38361 2.39159C3.14023 1.63244 4.03862 1.03046 5.02737 0.620081C6.01612 0.209704 7.07583 -0.00100824 8.14584 3.62707e-06Z" fill="#000B1D"/>
<path d="M18.2083 36.9231C20.8547 36.9231 23 34.7706 23 32.1154V27.3077H18.2083C15.5619 27.3077 13.4166 29.4602 13.4166 32.1154C13.4166 34.7706 15.5619 36.9231 18.2083 36.9231Z" fill="#0ACF83"/>
<path d="M13.4166 22.5C13.4166 19.8447 15.5619 17.6923 18.2083 17.6923H23V27.3076H18.2083C15.5619 27.3076 13.4166 25.1552 13.4166 22.5Z" fill="#A259FF"/>
<path d="M13.4166 12.8846C13.4166 10.2294 15.5619 8.0769 18.2083 8.0769H23V17.6923H18.2083C15.5619 17.6923 13.4166 15.5398 13.4166 12.8846Z" fill="#F24E1E"/>
<path d="M23 8.0769H27.7917C30.438 8.0769 32.5833 10.2294 32.5833 12.8846C32.5833 15.5398 30.438 17.6923 27.7917 17.6923H23V8.0769Z" fill="#FF7262"/>
<path d="M32.5833 22.5C32.5833 25.1552 30.438 27.3076 27.7917 27.3076C25.1453 27.3076 23 25.1552 23 22.5C23 19.8447 25.1453 17.6923 27.7917 17.6923C30.438 17.6923 32.5833 19.8447 32.5833 22.5Z" fill="#1ABCFE"/>
</g>
<defs>
<clipPath id="clip0_185_100">
<rect width="46" height="45" fill="white"/>
</clipPath>
</defs>
</svg>
