<svg width="46" height="45" viewBox="0 0 46 45" fill="none" xmlns="http://www.w3.org/2000/svg">
<g clip-path="url(#clip0_185_101)">
<path d="M8.14584 3.62707e-06H37.8542C38.9242 -0.00100824 39.9839 0.209704 40.9726 0.620081C41.9614 1.03046 42.8598 1.63244 43.6164 2.39159C44.373 3.15073 44.973 4.05212 45.382 5.04418C45.791 6.03624 46.001 7.09949 46 8.17308V36.8269C46.001 37.9005 45.791 38.9638 45.382 39.9558C44.973 40.9479 44.373 41.8493 43.6164 42.6084C42.8598 43.3676 41.9614 43.9696 40.9726 44.3799C39.9839 44.7903 38.9242 45.001 37.8542 45H8.14584C7.07583 45.001 6.01612 44.7903 5.02737 44.3799C4.03862 43.9696 3.14023 43.3676 2.38361 42.6084C1.627 41.8493 1.02702 40.9479 0.618014 39.9558C0.209005 38.9638 -0.00100488 37.9005 3.61498e-06 36.8269V8.17308C-0.00100488 7.09949 0.209005 6.03624 0.618014 5.04418C1.02702 4.05212 1.627 3.15073 2.38361 2.39159C3.14023 1.63244 4.03862 1.03046 5.02737 0.620081C6.01612 0.209704 7.07583 -0.00100824 8.14584 3.62707e-06Z" fill="#330000"/>
<path d="M22.2909 27.0001H15.1609L13.7042 31.5193C13.6879 31.6017 13.6416 31.675 13.5742 31.7248C13.5068 31.7746 13.4233 31.7973 13.34 31.7885H9.73671C9.52588 31.7885 9.46838 31.6731 9.52588 31.4424L15.6975 13.6154C15.755 13.4231 15.8125 13.2116 15.8892 12.9808C15.9664 12.5687 16.0049 12.1502 16.0042 11.7308C15.9985 11.6827 16.0111 11.6341 16.0395 11.5949C16.068 11.5556 16.1101 11.5286 16.1575 11.5193H21.1217C21.275 11.5193 21.3517 11.577 21.3709 11.6731L28.3667 31.4808C28.4242 31.6924 28.3667 31.7885 28.175 31.7885H24.1692C24.1015 31.7951 24.0336 31.7774 23.9775 31.7388C23.9214 31.7001 23.8807 31.6428 23.8625 31.577L22.2909 27.0001ZM16.2725 23.0962H21.1409C21.0259 22.6924 20.8725 22.2116 20.7 21.7116C20.5275 21.2116 20.355 20.6347 20.1825 20.0577C20.01 19.4808 19.8184 18.8847 19.6267 18.2885C19.435 17.6924 19.2625 17.1347 19.1092 16.577C18.9559 16.0193 18.8217 15.5385 18.6875 15.077H18.6492C18.477 15.9151 18.2594 16.7433 17.9975 17.5577C17.71 18.4808 17.4225 19.4424 17.1159 20.4039C16.8475 21.3847 16.56 22.2885 16.2725 23.0962Z" fill="#FF9A00"/>
<path d="M32.5451 14.8077C32.2305 14.8146 31.9176 14.7587 31.6248 14.6431C31.3319 14.5276 31.0649 14.3547 30.8393 14.1346C30.4001 13.6529 30.1662 13.0179 30.1876 12.3654C30.1763 12.0475 30.2319 11.7307 30.3508 11.4358C30.4697 11.1409 30.6492 10.8745 30.8776 10.6539C31.3383 10.217 31.9495 9.97579 32.5834 9.98079C33.3309 9.98079 33.9059 10.2116 34.3276 10.6539C34.7522 11.1202 34.9791 11.7341 34.9601 12.3654C34.9718 12.6903 34.9184 13.0143 34.8032 13.3182C34.688 13.6221 34.5132 13.8997 34.2893 14.1346C34.0634 14.3654 33.7909 14.545 33.49 14.6611C33.1891 14.7772 32.8669 14.8272 32.5451 14.8077ZM30.3984 31.5V16.6923C30.3984 16.5 30.4751 16.4231 30.6476 16.4231H34.4426C34.6151 16.4231 34.6918 16.5193 34.6918 16.6923V31.5C34.6918 31.7116 34.6151 31.8077 34.4426 31.8077H30.6859C30.6456 31.811 30.6051 31.8052 30.5674 31.7906C30.5297 31.7761 30.4958 31.7531 30.4681 31.7235C30.4405 31.6939 30.4199 31.6585 30.4078 31.6198C30.3957 31.5811 30.3925 31.5401 30.3984 31.5Z" fill="#FF9A00"/>
</g>
<defs>
<clipPath id="clip0_185_101">
<rect width="46" height="45" fill="white"/>
</clipPath>
</defs>
</svg>
