<svg width="46" height="45" viewBox="0 0 46 45" fill="none" xmlns="http://www.w3.org/2000/svg">
<g clip-path="url(#clip0_185_102)">
<path d="M8.14584 3.62707e-06H37.8542C38.9242 -0.00100824 39.9839 0.209704 40.9726 0.620081C41.9614 1.03046 42.8598 1.63244 43.6164 2.39159C44.373 3.15073 44.973 4.05212 45.382 5.04418C45.791 6.03624 46.001 7.09949 46 8.17308V36.8269C46.001 37.9005 45.791 38.9638 45.382 39.9558C44.973 40.9479 44.373 41.8493 43.6164 42.6084C42.8598 43.3676 41.9614 43.9695 40.9726 44.3799C39.9839 44.7903 38.9242 45.001 37.8542 45H8.14584C7.07583 45.001 6.01612 44.7903 5.02737 44.3799C4.03862 43.9695 3.14023 43.3676 2.38361 42.6084C1.627 41.8493 1.02702 40.9479 0.618014 39.9558C0.209005 38.9638 -0.00100488 37.9005 3.61498e-06 36.8269V8.17308C-0.00100488 7.09949 0.209005 6.03624 0.618014 5.04418C1.02702 4.05212 1.627 3.15073 2.38361 2.39159C3.14023 1.63244 4.03862 1.03046 5.02737 0.620081C6.01612 0.209704 7.07583 -0.00100824 8.14584 3.62707e-06Z" fill="#001E36"/>
<path d="M10.35 31.5576V11.7692C10.35 11.6346 10.4075 11.5576 10.5416 11.5576C10.8675 11.5576 11.1741 11.5576 11.615 11.5384C12.0558 11.5192 12.5541 11.5192 13.0716 11.5C13.5891 11.4807 14.145 11.4807 14.7391 11.4615C15.3333 11.4423 15.9083 11.4423 16.4833 11.4423C18.055 11.4423 19.3583 11.6346 20.4316 12.0384C21.3938 12.3663 22.2711 12.9049 23 13.6153C23.6176 14.237 24.0948 14.9847 24.3991 15.8076C24.6893 16.6091 24.8384 17.455 24.84 18.3076C24.84 19.9615 24.4566 21.3269 23.69 22.4038C22.9198 23.4792 21.8444 24.2968 20.6041 24.75C19.3008 25.2307 17.8633 25.4038 16.2916 25.4038C15.8316 25.4038 15.525 25.4038 15.3333 25.3846C15.1416 25.3653 14.8733 25.3653 14.5091 25.3653V31.5384C14.5134 31.5701 14.5113 31.6022 14.503 31.6331C14.4946 31.6639 14.4802 31.6927 14.4605 31.7178C14.4409 31.7429 14.4164 31.7638 14.3885 31.7792C14.3606 31.7947 14.33 31.8043 14.2983 31.8076H10.58C10.4266 31.8076 10.35 31.7307 10.35 31.5576ZM14.5283 15.2692V21.7307C14.7966 21.75 15.0458 21.7692 15.2758 21.7692H16.2916C17.0399 21.7701 17.7836 21.6533 18.4958 21.423C19.1068 21.2427 19.6527 20.8887 20.0675 20.4038C20.47 19.923 20.6616 19.2692 20.6616 18.423C20.6797 17.8221 20.5268 17.2284 20.2208 16.7115C19.9012 16.2122 19.4312 15.8282 18.8791 15.6153C18.1596 15.3326 17.3897 15.2016 16.6175 15.2307C16.1191 15.2307 15.6783 15.2307 15.3141 15.25C15.0522 15.2328 14.7892 15.2392 14.5283 15.2692Z" fill="#31A8FF"/>
<path d="M36.8 20.5577C36.2213 20.2519 35.6016 20.0317 34.96 19.9039C34.2554 19.7438 33.5358 19.6599 32.8134 19.6539C32.4255 19.6404 32.0378 19.6858 31.6634 19.7885C31.4246 19.8383 31.2129 19.9754 31.0692 20.1731C30.9724 20.3291 30.9194 20.5085 30.9159 20.6923C30.9248 20.8753 30.992 21.0505 31.1075 21.1923C31.2892 21.4061 31.5105 21.5824 31.7592 21.7115C32.2 21.9423 32.66 22.1539 33.12 22.3462C34.1556 22.6959 35.1463 23.1671 36.0717 23.75C36.7011 24.1471 37.2216 24.6958 37.5859 25.3462C37.8939 25.9597 38.0453 26.6403 38.0267 27.3269C38.0422 28.2359 37.7815 29.128 37.2792 29.8846C36.7446 30.6523 35.9986 31.247 35.1325 31.5962C34.1934 32 33.0434 32.2115 31.6634 32.2115C30.7884 32.2151 29.9152 32.1313 29.0567 31.9615C28.3807 31.8443 27.7233 31.6374 27.1017 31.3462C27.0349 31.3125 26.9793 31.26 26.9418 31.1951C26.9044 31.1302 26.8867 31.0557 26.8909 30.9808V27.6346C26.8892 27.6018 26.8953 27.569 26.9086 27.5389C26.9219 27.5088 26.9421 27.4823 26.9675 27.4615C26.9945 27.4458 27.0259 27.4391 27.0569 27.4426C27.088 27.446 27.1171 27.4594 27.14 27.4808C27.8783 27.9175 28.6803 28.2355 29.5167 28.4231C30.2552 28.6159 31.0153 28.7128 31.7784 28.7115C32.5067 28.7115 33.0242 28.6154 33.3692 28.4423C33.5231 28.371 33.6535 28.2571 33.7452 28.1141C33.8368 27.971 33.8859 27.8047 33.8867 27.6346C33.8867 27.3654 33.7334 27.1154 33.4267 26.8654C33.12 26.6154 32.4875 26.3269 31.5484 25.9615C30.5849 25.6209 29.6699 25.1554 28.8267 24.5769C28.2261 24.1474 27.7285 23.589 27.37 22.9423C27.0641 22.3349 26.9127 21.6611 26.9292 20.9808C26.932 20.1602 27.1573 19.3558 27.5809 18.6539C28.0678 17.8819 28.7666 17.2675 29.5934 16.8846C30.4942 16.4231 31.625 16.2115 32.9859 16.2115C33.7812 16.2118 34.5755 16.2696 35.3625 16.3846C35.9284 16.4615 36.4823 16.6101 37.0109 16.8269C37.0951 16.8569 37.164 16.9191 37.2025 17C37.2246 17.0751 37.2375 17.1526 37.2409 17.2308V20.3654C37.2412 20.4028 37.2326 20.4397 37.216 20.4731C37.1993 20.5065 37.175 20.5355 37.145 20.5577C37.0335 20.5979 36.9115 20.5979 36.8 20.5577Z" fill="#31A8FF"/>
</g>
<defs>
<clipPath id="clip0_185_102">
<rect width="46" height="45" fill="white"/>
</clipPath>
</defs>
</svg>
